<?xml version="1.0" encoding="utf-8"?>
<!-- Generator: Adobe Illustrator 22.0.1, SVG Export Plug-In . SVG Version: 6.00 Build 0)  -->
<svg version="1.1" id="Layer_1" xmlns="http://www.w3.org/2000/svg" xmlns:xlink="http://www.w3.org/1999/xlink" x="0px" y="0px"
	 viewBox="0 0 512 512" style="enable-background:new 0 0 512 512;" xml:space="preserve">
<g>
	<path d="M499.9,206.9l-0.1-0.1c-0.1,0-0.1-0.1-0.1-0.1s-0.1-0.1-0.2-0.1c-0.3-0.3-0.6-0.5-0.9-0.7L423,158.8V35
		c0-12.7-10.3-23-23-23H112c-12.7,0-23,10.3-23,23v123.8l-75.5,46.9c-0.1,0.1-0.5,0.3-1.2,1l-0.1,0.1C4.4,214.2,0,224.4,0,235v226
		c0,21.5,17.5,39,39,39h434c10.5,0,20.6-4.2,27.9-11.8l0,0c7.1-7.3,11.1-17,11.1-27.2V235C512,224.4,507.6,214.2,499.9,206.9z
		 M498,235v226c0,4-0.9,7.9-2.8,11.4L363.7,332.3L494,221.5C496.6,225.6,498,230.3,498,235z M483,212.6l-60,51v-88.2L483,212.6z
		 M103,35c0-5,4-9,9-9h288c5,0,9,4,9,9v240.4l-54.9,46.7l-75.5-80.3c-5.9-6.2-14-9.8-22.6-9.8l0,0c-8.6,0-16.7,3.5-22.6,9.8
		l-75.5,80.3L103,275.4V35z M91.5,284l37.1,31.5l19.8,16.8L16.7,472.4C14.9,468.9,14,465,14,461V235c0-4.8,1.4-9.5,4-13.5l29.4,25
		L91.5,284z M89,263.5l-60-51l60-37.3L89,263.5z M39,486c-4.4,0-8.8-1.2-12.6-3.4l51-54.3l166.2-177c3.4-3.2,7.8-5.1,12.4-5.4
		c4.7,0,9.2,1.9,12.4,5.4L467,462.8l18.6,19.8c-3.8,2.2-8.2,3.4-12.6,3.4L39,486z"/>
	<path d="M243.8,190.2l7.8,6.4c2.6,2.1,6.3,2.1,8.8,0l7.8-6.4c23.5-19.1,42.8-42.8,56.7-69.6c10.2-19.7,2.5-43.9-17.2-54.1
		c-18.1-9.4-40.4-3.7-51.8,13.3c-12.4-18.4-37.3-23.3-55.7-11c-17,11.4-22.7,33.7-13.3,51.8C200.9,147.5,220.2,171.2,243.8,190.2z
		 M198.6,92c3-7.2,9-12.6,16.5-14.9c2.4-0.8,5-1.1,7.6-1.1c10.1,0,19.4,5.8,23.7,15l3.3,7.1c1.7,3.5,5.8,5,9.3,3.3
		c1.5-0.7,2.6-1.9,3.3-3.3l3.4-7.1c6.2-13,21.8-18.6,34.8-12.3c13,6.2,18.6,21.8,12.3,34.8c-0.1,0.2-0.2,0.5-0.3,0.7
		c-13,25.2-31.1,47.4-53.1,65.2l-3.4,2.8l-3.4-2.8c-22-17.8-40.1-40-53.1-65.2C195.9,107.3,195.6,99.2,198.6,92z"/>
</g>
</svg>
